<?xml version="1.0" encoding="UTF-8"?>
<svg id="uuid-a7bf0f1c-67de-4386-928e-ca5cf5090c19" data-name="Layer 2" xmlns="http://www.w3.org/2000/svg" xmlns:xlink="http://www.w3.org/1999/xlink" viewBox="0 0 649.89 649.89">
  <defs>
    <style>
      .uuid-1a8c2073-9cfa-4e31-89db-ce17ab1db37a {
        fill: url(#uuid-ff40fb31-5867-431b-8ab0-ff288c34cd19);
      }

      .uuid-ed07d924-eb6b-4739-9714-4217a9c10383 {
        fill: #fff;
      }
    </style>
    <radialGradient id="uuid-ff40fb31-5867-431b-8ab0-ff288c34cd19" data-name="Degradado sin nombre 5" cx="-2565.03" cy="-739.59" fx="-2565.03" fy="-739.59" r="1912.45" gradientTransform="translate(-419.52 691.61) rotate(134.13) scale(.54 .39) skewX(-19.55)" gradientUnits="userSpaceOnUse">
      <stop offset="0" stop-color="#00edff"/>
      <stop offset=".09" stop-color="#01d4ff"/>
      <stop offset=".21" stop-color="#02b9ff"/>
      <stop offset=".34" stop-color="#03a5ff"/>
      <stop offset=".47" stop-color="#0399ff"/>
      <stop offset=".6" stop-color="#0496ff"/>
      <stop offset="1" stop-color="#005de5"/>
    </radialGradient>
  </defs>
  <g id="uuid-f330599f-c012-4a7e-a62f-da156454d7c5" data-name="Capa 1">
    <g>
      <rect class="uuid-1a8c2073-9cfa-4e31-89db-ce17ab1db37a" width="649.89" height="649.89"/>
      <g>
        <path class="uuid-ed07d924-eb6b-4739-9714-4217a9c10383" d="M569.23,268.71c1.22-.38,1.99-1.22,1.99-2.71,0-2.09-1.39-3.03-3.97-3.03h-3.58v10.25h1.92v-4.07h1.82l2.26,4.07h2.09l-2.53-4.41v-.11ZM567.36,267.71h-1.77v-3.19h1.6c1.55,0,2.04.38,2.04,1.54,0,1-.49,1.65-1.87,1.65Z"/>
        <path class="uuid-ed07d924-eb6b-4739-9714-4217a9c10383" d="M567.14,257.69c-5.96,0-10.42,4.63-10.42,10.53s4.47,10.47,10.42,10.47,10.47-4.69,10.47-10.47-4.56-10.53-10.47-10.53ZM567.14,277.14c-5.13,0-8.66-3.96-8.66-8.92s3.53-8.99,8.66-8.99,8.65,4.02,8.65,8.99-3.63,8.92-8.65,8.92Z"/>
        <path class="uuid-ed07d924-eb6b-4739-9714-4217a9c10383" d="M550.91,349.72h-16.56c-2.06,0-3.92,1.11-4.99,2.97-7.93,13.83-21.44,21.76-37.06,21.76-24.59,0-44.6-22.13-44.6-49.34s20.01-49.87,44.6-49.87c15.39,0,28.9,7.96,37.06,21.83,1.07,1.82,2.92,2.91,4.95,2.91h16.56c1.37,0,2.64-.68,3.4-1.82.77-1.15.92-2.59.39-3.87-10.62-25.93-33.94-41.42-62.36-41.42-37.95,0-68.82,32.41-68.82,72.24s30.87,71.71,68.82,71.71c28.24,0,52.15-15.88,62.41-41.45.51-1.28.36-2.72-.41-3.85-.76-1.13-2.03-1.8-3.4-1.8Z"/>
        <path class="uuid-ed07d924-eb6b-4739-9714-4217a9c10383" d="M264.27,373.25h-.53c-8.06,0-34.34-2.11-34.34-29.32v-66.48h18.44c2.26,0,4.1-1.84,4.1-4.09v-15.85c0-2.26-1.84-4.09-4.1-4.09h-18.44v-29.65c0-2.26-1.84-4.1-4.09-4.1h-16.67c-2.26,0-4.1,1.84-4.1,4.1v120.17c0,15.9,5.6,29.39,16.2,39.01,9.87,8.96,23.56,13.89,38.56,13.89,1.76,0,3.54-.07,5.32-.2,2.09-.16,3.74-1.96,3.74-4.09v-15.19c0-2.26-1.82-4.09-4.09-4.09Z"/>
        <path class="uuid-ed07d924-eb6b-4739-9714-4217a9c10383" d="M98.91,253.34h16.09c2.13,0,3.85,1.73,3.85,3.85v16.3c0,2.13-1.73,3.85-3.85,3.85h-16.09c-2.13,0-3.85-1.73-3.85-3.85v-16.3c0-2.13,1.73-3.85,3.85-3.85Z"/>
        <path class="uuid-ed07d924-eb6b-4739-9714-4217a9c10383" d="M191.3,373.25h-.53c-8.06,0-34.34-2.11-34.34-29.32v-66.48h18.44c2.26,0,4.1-1.84,4.1-4.09v-15.85c0-2.26-1.84-4.09-4.1-4.09h-18.44v-29.65c0-2.26-1.84-4.1-4.09-4.1h-16.67c-2.26,0-4.1,1.84-4.1,4.1v120.17c0,15.9,5.6,29.39,16.2,39.01,9.87,8.96,23.56,13.9,38.56,13.9,1.76,0,3.54-.07,5.32-.2,2.09-.16,3.74-1.96,3.74-4.09v-15.19c0-2.26-1.82-4.09-4.09-4.09Z"/>
        <path class="uuid-ed07d924-eb6b-4739-9714-4217a9c10383" d="M191.32,420.71c-23.52,1.1-43.49-5.26-59.67-20.06-5.2-4.72-8.02-8.09-10.56-14.29-1.89-4.15-2.04-8.01-6.92-8.01,0,0-14.87-.03-14.87-.03-2.43-.05-4.45,2.29-4.05,4.68.32,2.25.76,4.67,1.93,8.4,13.48,35.72,57.41,55.02,93.83,52.75,2.65-.27,4.37-1.8,4.37-4.2v-15.18c0-2.24-1.82-4.06-4.06-4.07Z"/>
        <path class="uuid-ed07d924-eb6b-4739-9714-4217a9c10383" d="M337.28,252.88c-38.09,0-69.08,32.41-69.08,72.24s30.92,71.71,70.39,71.71c30.25,0,52.7-14.73,63.22-41.46.51-1.28.35-2.72-.42-3.86-.76-1.12-2.03-1.79-3.38-1.79h-16.22c-2.1,0-4.04,1.19-5.06,3.11-7.7,14.32-20.89,21.89-38.14,21.89-26.7,0-43.24-21.56-45.81-42.89h108.05c1.55,0,3-.62,4.08-1.75,1.09-1.14,1.67-2.69,1.6-4.28-.97-21.52-8.76-40.04-22.54-53.56-12.73-12.49-29.31-19.37-46.7-19.37ZM294.26,309.99c5.65-20.61,23.32-34.99,43.02-34.99s36.84,14.38,42.48,34.99h-85.5Z"/>
      </g>
    </g>
  </g>
</svg>